<?xml version="1.0" encoding="UTF-8"?>
<svg id="Layer_1" data-name="Layer 1" xmlns="http://www.w3.org/2000/svg" viewBox="0 0 217.58 73.45">
  <defs>
    <style>
      .cls-1 {
        fill: #fff;
      }
    </style>
  </defs>
  <path class="cls-1" d="M29.6,0C48.71,0,60.7,10.37,60.7,26.9s-12.53,27.87-32.62,27.87h-9.83v18.69H0V0h29.6ZM29.16,38.78c8.1,0,13.29-4.64,13.29-11.88,0-6.59-5.18-10.8-13.29-10.8h-10.91v22.68h10.91Z"/>
  <path class="cls-1" d="M141.73,73.45h-18.26v-36.83l-16.31,25.17v.11h-10.15v-.11l-16.42-25.38.11,37.05h-18.25V0h13.5l26.14,39.21L128.12,0h13.61v73.45Z"/>
  <path class="cls-1" d="M217.58,32.38v41h-13.5s-.11-7.36-.11-7.36c-5.05,3.75-11.18,6.25-17.98,7.07-.01,0-.02,0-.03,0-1.27.15-2.57.25-3.88.28-.23.01-.46.01-.69.01h-.31c-1.97-.01-3.88-.15-5.74-.41-.15-.02-.3-.04-.45-.07-18.63-2.75-31.16-17.31-31.16-35.46,0-.14,0-.28,0-.41C143.94,15.31,160.09.07,181.59.07c2.34,0,4.64.18,6.88.53,13.07,2.05,23.87,10.01,27.57,22.53.33,1.12.6,2.26.82,3.45h-18.41c-3.12-8.18-10.19-10.45-16.54-10.45-9.51,0-16.69,5.27-19.31,13.58-.03.1-.06.19-.09.29-.68,2.1-1.03,4.34-1.03,6.66,0,.91.06,1.8.16,2.68.6,5.8,3.45,10.86,8.03,14.08.03.02.05.04.07.05,3.01,2.11,6.75,3.42,11.09,3.63h.26c7.83,0,14.16-4.4,17.35-10.76l-18.71-.19v-13.77h37.86Z"/>
</svg>